# xmcd CD database file
#
# Track frame offsets:
#	180
#	19614
#	42262
#	63025
#	83358
#	110323
#	130375
#	153012
#	173566
#	200479
#	223455
#
# Disc length: 3342 seconds
#
# Revision: 3
# Processed by: cddbd v1.5PL3 Copyright (c) Steve Scherf et al.
# Submitted via: CDex 1.50beta10
#
DISCID=850d0c0b
DTITLE=Johnnie Bassett with The Bill Heid Trio - Bassett Hound
DYEAR=1997
DGENRE=Blues
TTITLE0=Bassett Hound
TTITLE1=Walk My Blues Away
TTITLE2=Ningyo Mambo
TTITLE3=Sweet Potato Pie
TTITLE4=You Little Doll!
TTITLE5=Still Can Boogie
TTITLE6=Years Gone By
TTITLE7=The Mellow Side
TTITLE8=Pick Up the Pieces
TTITLE9=Cold Winter Morning
TTITLE10=Bouncing with Bassett
EXTD=YEAR: 1997
EXTT0=
EXTT1=
EXTT2=
EXTT3=
EXTT4=
EXTT5=
EXTT6=
EXTT7=
EXTT8=
EXTT9=
EXTT10=
PLAYORDER=
